REM GENRE Soundtrack
REM DATE 2019
REM DISCID CE118F1F
REM COMMENT "ExactAudioCopy v1.3"
PERFORMER "Various Artists"
TITLE "Once Upon A Time In Hollywood"
REM COMPOSER ""
FILE "01 - test_s.flac" WAVE
  TRACK 01 AUDIO
    TITLE "Treat Her Right"
    PERFORMER "Roy Head & The Traits"
    REM COMPOSER ""
    ISRC USMC16519931
    INDEX 01 00:00:00
FILE "02 - test_s.flac" WAVE
  TRACK 02 AUDIO
    TITLE "Ramblin' Gamblin' Man"
    PERFORMER "The Bob Seger System"
    REM COMPOSER ""
    ISRC USHRD1123160
    INDEX 01 00:00:00
FILE "03 - test_s.flac" WAVE
  TRACK 03 AUDIO
    TITLE "Hush"
    PERFORMER "Deep Purple"
    REM COMPOSER ""
    ISRC GBCBR1100170
    INDEX 01 00:00:00